HIERARCHY
ROOT Hips
{
	OFFSET 48.081699 0.648866 51.700199
	CHANNELS 6 Xposition Yposition Zposition Xrotation Yrotation Zrotation
	JOINT spine
	{
		OFFSET 0.000000 -0.477352 8.301041
		CHANNELS 3 Xrotation Yrotation Zrotation
		JOINT spine1
		{
			OFFSET 0.000000 -0.000002 10.456501
			CHANNELS 3 Xrotation Yrotation Zrotation
			JOINT spine2
			{
				OFFSET 0.000000 -0.000002 10.019203
				CHANNELS 3 Xrotation Yrotation Zrotation
				JOINT Neck
				{
					OFFSET 0.000000 -1.226414 25.723495
					CHANNELS 3 Xrotation Yrotation Zrotation
					JOINT Head
					{
						OFFSET 0.000000 -0.000001 7.771751
						CHANNELS 3 Xrotation Yrotation Zrotation
						End Site
						{
							OFFSET 0.000000 6.203937 18.812004
						}
					}
				}
				JOINT RightShoulder
				{
					OFFSET -4.218800 0.587437 10.820000
					CHANNELS 3 Xrotation Yrotation Zrotation
					JOINT RightArm
					{
						OFFSET 0.000000 -0.000002 14.191399
						CHANNELS 3 Xrotation Yrotation Zrotation
						JOINT RightArmRoll
						{
							OFFSET 0.000000 -0.000001 7.164078
							CHANNELS 3 Xrotation Yrotation Zrotation
							JOINT RightForeArm
							{
								OFFSET 0.000000 -0.000003 20.866501
								CHANNELS 3 Xrotation Yrotation Zrotation
								JOINT RightForeArmRoll
								{
									OFFSET 0.000000 -0.000001 8.039215
									CHANNELS 3 Xrotation Yrotation Zrotation
									JOINT RightHand
									{
										OFFSET 0.000000 -0.000003 16.132996
										CHANNELS 3 Xrotation Yrotation Zrotation
										End Site
										{
											OFFSET 0.000000 0.000000 0.100006
										}
									}
								}
							}
						}
					}
				}
				JOINT LeftShoulder
				{
					OFFSET 4.218800 0.587437 10.820000
					CHANNELS 3 Xrotation Yrotation Zrotation
					JOINT LeftArm
					{
						OFFSET 0.000000 -0.000002 14.191399
						CHANNELS 3 Xrotation Yrotation Zrotation
						JOINT LeftArmRoll
						{
							OFFSET 0.000000 -0.000001 7.164078
							CHANNELS 3 Xrotation Yrotation Zrotation
							JOINT LeftForeArm
							{
								OFFSET 0.000000 -0.000003 20.866501
								CHANNELS 3 Xrotation Yrotation Zrotation
								JOINT LeftForeArmRoll
								{
									OFFSET 0.000000 -0.000001 8.039215
									CHANNELS 3 Xrotation Yrotation Zrotation
									JOINT LeftHand
									{
										OFFSET 0.000000 -0.000003 16.132996
										CHANNELS 3 Xrotation Yrotation Zrotation
										End Site
										{
											OFFSET 0.000000 0.000000 0.100006
										}
									}
								}
							}
						}
					}
				}
			}
		}
	}
	JOINT RightUpLeg
	{
		OFFSET -7.357731 1.131810 -1.349209
		CHANNELS 3 Xrotation Yrotation Zrotation
		JOINT RightUpLegRoll
		{
			OFFSET 0.000000 -0.000003 18.916801
			CHANNELS 3 Xrotation Yrotation Zrotation
			JOINT RightLeg
			{
				OFFSET 0.000000 0.000004 -23.425598
				CHANNELS 3 Xrotation Yrotation Zrotation
				JOINT RightLegRoll
				{
					OFFSET 0.000000 -0.000004 23.502304
					CHANNELS 3 Xrotation Yrotation Zrotation
					JOINT RightFoot
					{
						OFFSET 0.000000 -0.000003 19.561699
						CHANNELS 3 Xrotation Yrotation Zrotation
						JOINT RightToeBase
						{
							OFFSET 0.000000 -0.000003 16.352600
							CHANNELS 3 Xrotation Yrotation Zrotation
							End Site
							{
								OFFSET 0.006931 0.912835 7.919441
							}
						}
					}
				}
			}
		}
	}
	JOINT LeftUpLeg
	{
		OFFSET 7.357731 1.131810 -1.349209
		CHANNELS 3 Xrotation Yrotation Zrotation
		JOINT LeftUpLegRoll
		{
			OFFSET 0.000000 -0.000003 18.916901
			CHANNELS 3 Xrotation Yrotation Zrotation
			JOINT LeftLeg
			{
				OFFSET 0.000000 -0.000004 23.425499
				CHANNELS 3 Xrotation Yrotation Zrotation
				JOINT LeftLegRoll
				{
					OFFSET 0.000000 -0.000004 23.719498
					CHANNELS 3 Xrotation Yrotation Zrotation
					JOINT LeftFoot
					{
						OFFSET 0.000000 -0.000003 19.344406
						CHANNELS 3 Xrotation Yrotation Zrotation
						JOINT LeftToeBase
						{
							OFFSET 0.000000 -0.000003 16.352600
							CHANNELS 3 Xrotation Yrotation Zrotation
							End Site
							{
								OFFSET -0.031063 0.912835 7.919434
							}
						}
					}
				}
			}
		}
	}
}
MOTION
Frames: 12
Frame Time: 0.041667
47.992695 -1.494710 52.750698 -2.443848 1.627589 2.276685 2.644664 -0.656789 0.138366 9.294525 -1.316966 0.313478 10.939810 -1.313114 0.329234 1.107812 5.564649 -1.497736 -9.328387 -2.636171 -2.254370 -7.389134 -56.800751 -8.556945 -66.588860 -142.372752 -40.510132 0.000001 -0.000001 0.000001 3.880626 4.601329 1.748246 0.000005 0.000004 -3.011230 -5.000233 -7.998802 0.000151 -4.761384 60.087565 5.732721 -69.075062 127.667464 55.174473 0.000003 -0.000022 -0.000000 16.067897 5.067621 0.220850 -0.000002 -0.000005 3.000000 -5.000252 7.998850 -0.000143 -88.413452 -161.268594 10.837492 -179.999991 0.000003 -1.505997 77.355704 3.121908 1.201570 -0.000004 -0.000000 2.430228 76.897705 8.558862 -3.919190 25.466007 -7.346683 0.006974 -90.882579 160.808731 -6.608395 -0.000005 -0.000004 -1.483571 -104.968014 -4.943180 -4.704782 0.000002 -0.000000 -2.897009 76.086832 -7.737777 1.112357 27.173385 7.340250 -0.219853 
47.992096 -1.474708 52.739799 -2.555880 1.610317 2.273042 2.641504 -0.654704 0.136780 9.288182 -1.313269 0.310170 10.933490 -1.309460 0.325883 1.229325 5.640979 -1.504924 -9.321106 -2.689230 -2.265466 -7.380583 -56.781596 -8.545245 -66.487677 -142.286132 -40.432521 -0.000001 0.000000 -0.000000 3.936871 4.543907 1.737521 0.000003 0.000005 -3.011201 -5.000231 -7.998802 0.000152 -4.777424 60.158906 5.758173 -69.106085 127.553523 55.217332 0.000004 -0.000023 -0.000001 16.091169 5.105843 0.215628 -0.000002 -0.000004 3.000001 -5.000251 7.998850 -0.000143 -88.346509 -161.280574 10.826158 -179.999991 0.000003 -1.506995 77.349188 3.133254 1.215812 -0.000005 0.000001 2.428909 76.867318 8.562341 -3.922387 25.465699 -7.346682 0.006968 -90.799381 160.803335 -6.617414 -0.000005 -0.000001 -1.484709 -104.972617 -4.945230 -4.711248 0.000002 -0.000000 -2.895668 76.067059 -7.741097 1.118990 27.167626 7.340251 -0.219076 
47.966698 -1.450228 52.694599 -2.669021 1.592611 2.269663 2.638844 -0.652819 0.135210 9.282826 -1.309795 0.306903 10.928072 -1.306028 0.322573 1.346251 5.718573 -1.511657 -9.310048 -2.742706 -2.276249 -7.373315 -56.762461 -8.535073 -66.387813 -142.200195 -40.356357 0.000002 0.000001 0.000000 3.991723 4.486684 1.726976 0.000003 0.000005 -3.011170 -5.000233 -7.998802 0.000151 -4.791245 60.232242 5.781181 -69.138897 127.439404 55.260431 0.000003 -0.000023 -0.000001 16.114532 5.143018 0.210519 -0.000001 -0.000004 3.000000 -5.000251 7.998850 -0.000143 -88.277770 -161.291475 10.814619 -179.999991 0.000004 -1.508005 77.343539 3.144297 1.229790 -0.000005 0.000000 2.427719 76.836930 8.565981 -3.925956 25.465401 -7.346696 0.006975 -90.714235 160.799592 -6.626091 -0.000005 -0.000003 -1.485779 -104.975916 -4.947435 -4.717680 0.000001 -0.000000 -2.894091 76.046042 -7.744226 1.124761 27.161863 7.340249 -0.218288 
47.968395 -1.426380 52.679699 -2.783469 1.574411 2.266667 2.636752 -0.651174 0.133665 9.278613 -1.306623 0.303703 10.923860 -1.302894 0.319336 1.458093 5.797596 -1.517960 -9.294714 -2.796722 -2.286764 -7.367629 -56.743135 -8.526770 -66.289308 -142.115036 -40.281563 0.000003 0.000000 -0.000000 4.045077 4.429790 1.716654 0.000006 0.000006 -3.011148 -5.000234 -7.998802 0.000152 -4.802171 60.307688 5.800947 -69.173581 127.325190 55.303646 0.000003 -0.000025 -0.000001 16.137869 5.179030 0.205542 -0.000000 -0.000004 3.000001 -5.000250 7.998848 -0.000143 -88.206784 -161.301037 10.803064 -179.999991 0.000006 -1.509001 77.338929 3.154933 1.243699 -0.000004 0.000001 2.426668 76.806529 8.569799 -3.930106 25.465199 -7.346686 0.006981 -90.626877 160.798048 -6.634564 -0.000005 -0.000005 -1.486790 -104.977508 -4.949642 -4.723057 0.000001 0.000001 -2.892224 76.023619 -7.747090 1.129571 27.156098 7.340258 -0.217519 
47.961494 -1.408720 52.649502 -2.898638 1.555907 2.263742 2.635049 -0.649755 0.132028 9.275192 -1.303685 0.300328 10.920443 -1.299993 0.315925 1.563357 5.879067 -1.523212 -9.272721 -2.852406 -2.296593 -7.363049 -56.724441 -8.519828 -66.193351 -142.030751 -40.210283 0.000001 0.000000 0.000000 4.096435 4.372703 1.706451 0.000008 0.000005 -3.011119 -5.000234 -7.998800 0.000152 -4.812030 60.385969 5.819702 -69.211120 127.210170 55.348202 0.000004 -0.000023 -0.000000 16.162697 5.214137 0.200648 -0.000002 -0.000005 3.000001 -5.000252 7.998850 -0.000143 -88.134248 -161.309602 10.791566 -179.999991 0.000004 -1.510000 77.334913 3.165045 1.257234 -0.000005 0.000001 2.425779 76.776517 8.573796 -3.934963 25.465201 -7.346691 0.006981 -90.538126 160.798185 -6.642468 -0.000005 -0.000003 -1.487679 -104.977617 -4.951967 -4.728355 0.000001 0.000000 -2.890049 75.999918 -7.749708 1.133519 27.150649 7.340246 -0.216756 
47.960995 -1.370639 52.631397 -3.013835 1.537322 2.260480 2.633551 -0.648513 0.130196 9.272159 -1.300894 0.296571 10.917432 -1.297247 0.312136 1.661514 5.963559 -1.526972 -9.242816 -2.910462 -2.305380 -7.358909 -56.707031 -8.513510 -66.100269 -141.947614 -40.143231 0.000000 -0.000000 -0.000000 4.145519 4.314944 1.696274 0.000007 0.000006 -3.011089 -5.000230 -7.998801 0.000151 -4.822975 60.467330 5.839952 -69.253426 127.092909 55.396826 0.000004 -0.000023 -0.000001 16.190342 5.248680 0.195747 0.000002 -0.000005 3.000001 -5.000251 7.998850 -0.000143 -88.061014 -161.317580 10.780184 -179.999991 0.000007 -1.511993 77.331053 3.174487 1.270390 -0.000003 0.000001 2.425027 76.747188 8.577903 -3.940457 25.465199 -7.346690 0.006978 -90.449060 160.799278 -6.649546 -0.000005 -0.000003 -1.488399 -104.977132 -4.954090 -4.734609 0.000002 0.000000 -2.887600 75.975193 -7.752123 1.136818 27.145393 7.340256 -0.215996 
47.965595 -1.342719 52.627098 -3.129151 1.518613 2.256920 2.632258 -0.647420 0.128211 9.269541 -1.298219 0.292513 10.914820 -1.294627 0.308047 1.753555 6.050546 -1.529421 -9.206327 -2.970359 -2.313203 -7.355182 -56.690785 -8.507784 -66.009919 -141.865488 -40.079919 0.000002 0.000000 -0.000001 4.192587 4.256610 1.686119 0.000005 0.000005 -3.011071 -5.000229 -7.998801 0.000152 -4.834716 60.551253 5.861353 -69.298471 126.974596 55.446950 0.000004 -0.000022 -0.000000 16.220176 5.282617 0.190874 0.000001 -0.000003 3.000001 -5.000252 7.998850 -0.000143 -87.987118 -161.325038 10.768708 -179.999991 0.000006 -1.513005 77.327276 3.183376 1.283486 -0.000004 -0.000000 2.424432 76.718249 8.582251 -3.946647 25.465201 -7.346689 0.006978 -90.359550 160.801177 -6.655996 -0.000005 -0.000002 -1.488980 -104.976094 -4.956311 -4.738870 0.000001 0.000000 -2.884920 75.949648 -7.754285 1.139296 27.140544 7.340255 -0.215256 
47.961998 -1.312840 52.604195 -3.244662 1.499753 2.253072 2.631187 -0.646457 0.126111 9.267369 -1.295651 0.288232 10.912609 -1.292113 0.303735 1.840391 6.139486 -1.530775 -9.164576 -3.031536 -2.320179 -7.351900 -56.675639 -8.502663 -65.921311 -141.784427 -40.018915 0.000001 0.000000 0.000000 4.237889 4.197842 1.675992 0.000005 0.000004 -3.011041 -5.000231 -7.998802 0.000151 -4.847003 60.637368 5.883567 -69.346200 126.855123 55.498702 0.000004 -0.000024 -0.000001 16.251820 5.315926 0.186013 0.000003 -0.000005 3.000001 -5.000253 7.998850 -0.000143 -87.912499 -161.331923 10.757257 -179.999991 0.000003 -1.514002 77.323779 3.191804 1.296319 -0.000005 0.000001 2.423928 76.689822 8.586621 -3.953172 25.465199 -7.346687 0.006980 -90.269474 160.803731 -6.662027 -0.000005 -0.000003 -1.489440 -104.974489 -4.958667 -4.743099 0.000001 -0.000000 -2.882041 75.923351 -7.756318 1.141234 27.135793 7.340257 -0.214514 
47.966396 -1.287789 52.594894 -3.360462 1.480681 2.248974 2.630347 -0.645598 0.123938 9.265669 -1.293160 0.283807 10.910898 -1.289675 0.299280 1.923016 6.229848 -1.531237 -9.118889 -3.093461 -2.326405 -7.349003 -56.661357 -8.498073 -65.835613 -141.703257 -39.961982 0.000000 0.000000 0.000000 4.281707 4.138736 1.665899 0.000006 0.000004 -3.011011 -5.000231 -7.998801 0.000151 -4.859583 60.725470 5.906280 -69.395555 126.735034 55.550816 0.000003 -0.000022 -0.000000 16.284663 5.348588 0.181182 -0.000001 -0.000003 3.000000 -5.000250 7.998851 -0.000143 -87.837182 -161.338494 10.745710 -179.999991 0.000006 -1.514998 77.320330 3.199934 1.309123 -0.000005 0.000000 2.423530 76.661715 8.591098 -3.960109 25.465199 -7.346686 0.006980 -90.178803 160.807119 -6.667664 -0.000005 -0.000004 -1.489820 -104.972399 -4.960843 -4.747295 0.000002 -0.000000 -2.879000 75.896495 -7.758132 1.142460 27.131443 7.340252 -0.213814 
47.955795 -1.268199 52.575802 -3.476634 1.461386 2.244635 2.629759 -0.644821 0.121729 9.264459 -1.290736 0.279319 10.909684 -1.287304 0.294763 2.002369 6.321110 -1.531010 -9.070591 -3.155581 -2.331983 -7.346487 -56.647868 -8.494006 -65.751240 -141.622661 -39.906309 0.000001 0.000000 -0.000000 4.324288 4.079433 1.655852 0.000006 0.000005 -3.010991 -5.000232 -7.998802 0.000151 -4.872215 60.815089 5.929163 -69.447956 126.614167 55.605198 0.000003 -0.000023 -0.000000 16.318295 5.380569 0.176386 0.000002 -0.000004 3.000000 -5.000250 7.998849 -0.000143 -87.761148 -161.344627 10.733985 -179.999991 0.000005 -1.516993 77.317140 3.207848 1.321695 -0.000004 0.000000 2.423210 76.633773 8.595654 -3.967244 25.465199 -7.346690 0.006980 -90.087326 160.811108 -6.673140 -0.000005 -0.000004 -1.490130 -104.970056 -4.963221 -4.751507 0.000003 0.000000 -2.875851 75.869209 -7.759761 1.143177 27.127201 7.340247 -0.213123 
47.965691 -1.241478 52.566196 -3.593261 1.441811 2.240091 2.629447 -0.644101 0.119527 9.263802 -1.288340 0.274844 10.909077 -1.284960 0.290261 2.079415 6.412730 -1.530309 -9.020985 -3.217343 -2.337064 -7.344366 -56.635054 -8.490445 -65.668628 -141.541874 -39.852877 0.000002 0.000000 -0.000001 4.365904 4.020038 1.645857 0.000006 0.000004 -3.010961 -5.000233 -7.998801 0.000152 -4.884599 60.905815 5.951849 -69.501143 126.493492 55.659044 0.000004 -0.000023 -0.000001 16.352023 5.411852 0.171654 0.000003 -0.000003 3.000000 -5.000253 7.998851 -0.000143 -87.684486 -161.350542 10.721959 -179.999991 0.000005 -1.518004 77.314231 3.215636 1.334439 -0.000004 0.000001 2.422939 76.605879 8.600241 -3.974377 25.465199 -7.346685 0.006979 -89.995003 160.815711 -6.678541 -0.000005 -0.000003 -1.490399 -104.967508 -4.965546 -4.756702 0.000003 -0.000000 -2.872620 75.841703 -7.761217 1.143402 27.123064 7.340250 -0.212437 
47.951698 -1.238469 52.555092 -3.710423 1.421934 2.235353 2.629407 -0.643415 0.117368 9.263693 -1.285962 0.270463 10.908962 -1.282633 0.285852 2.155110 6.504167 -1.529344 -8.971409 -3.278199 -2.341742 -7.342592 -56.622712 -8.487350 -65.586844 -141.461072 -39.799792 -0.000001 0.000000 0.000001 4.406812 3.960673 1.635916 0.000006 0.000005 -3.010940 -5.000228 -7.998801 0.000151 -4.896460 60.997257 5.973981 -69.555006 126.372939 55.712460 0.000004 -0.000024 -0.000000 16.385433 5.442405 0.166985 0.000000 -0.000005 3.000001 -5.000254 7.998852 -0.000143 -87.607053 -161.356047 10.709758 -179.999991 0.000004 -1.519998 77.311444 3.223497 1.346996 -0.000005 -0.000000 2.422711 76.578073 8.604788 -3.981616 25.465199 -7.346691 0.006981 -89.901675 160.820766 -6.684214 -0.000005 -0.000004 -1.490660 -104.964783 -4.968092 -4.760902 0.000003 0.000000 -2.869359 75.813952 -7.762602 1.143217 27.119119 7.340257 -0.211789 
